<?xml version="1.0" encoding="UTF-8" standalone="no"?>
<!-- Created with Inkscape (http://www.inkscape.org/) -->

<svg
   width="160mm"
   height="60mm"
   viewBox="0 0 160 60.000001"
   version="1.1"
   id="svg1"
   xml:space="preserve"
   inkscape:version="1.3.2 (091e20e, 2023-11-25)"
   sodipodi:docname="logo-thxchat.svg"
   xmlns:inkscape="http://www.inkscape.org/namespaces/inkscape"
   xmlns:sodipodi="http://sodipodi.sourceforge.net/DTD/sodipodi-0.dtd"
   xmlns="http://www.w3.org/2000/svg"
   xmlns:svg="http://www.w3.org/2000/svg"><sodipodi:namedview
     id="namedview1"
     pagecolor="#ffffff"
     bordercolor="#000000"
     borderopacity="0.25"
     inkscape:showpageshadow="2"
     inkscape:pageopacity="0.0"
     inkscape:pagecheckerboard="0"
     inkscape:deskcolor="#d1d1d1"
     inkscape:document-units="mm"
     inkscape:zoom="0.68148705"
     inkscape:cx="455.62128"
     inkscape:cy="539.99559"
     inkscape:window-width="1408"
     inkscape:window-height="1027"
     inkscape:window-x="73"
     inkscape:window-y="1464"
     inkscape:window-maximized="0"
     inkscape:current-layer="layer1" /><defs
     id="defs1"><linearGradient
       id="paint0_linear_46_40"
       x1="0.299187"
       y1="0.15053"
       x2="61.137001"
       y2="48.280701"
       gradientUnits="userSpaceOnUse"><stop
         stop-color="#8C96F2"
         id="stop8" /><stop
         offset="1"
         stop-color="#162DD5"
         id="stop9" /></linearGradient><linearGradient
       id="paint1_linear_46_40"
       x1="0.29909801"
       y1="0.150516"
       x2="61.136902"
       y2="48.280701"
       gradientUnits="userSpaceOnUse"><stop
         stop-color="#8C96F2"
         id="stop10" /><stop
         offset="1"
         stop-color="#162DD5"
         id="stop11" /></linearGradient><linearGradient
       id="paint2_linear_46_40"
       x1="0.29908299"
       y1="0.150508"
       x2="61.136902"
       y2="48.280701"
       gradientUnits="userSpaceOnUse"><stop
         stop-color="#8C96F2"
         id="stop12" /><stop
         offset="1"
         stop-color="#162DD5"
         id="stop13" /></linearGradient><linearGradient
       id="paint3_linear_46_40"
       x1="0.29912701"
       y1="0.150472"
       x2="61.136902"
       y2="48.280602"
       gradientUnits="userSpaceOnUse"><stop
         stop-color="#8C96F2"
         id="stop14" /><stop
         offset="1"
         stop-color="#162DD5"
         id="stop15" /></linearGradient><linearGradient
       id="paint4_linear_46_40"
       x1="0.299124"
       y1="0.150526"
       x2="61.136902"
       y2="48.280701"
       gradientUnits="userSpaceOnUse"><stop
         stop-color="#8C96F2"
         id="stop16" /><stop
         offset="1"
         stop-color="#162DD5"
         id="stop17" /></linearGradient><linearGradient
       id="paint5_linear_46_40"
       x1="0.29908401"
       y1="0.150521"
       x2="61.136902"
       y2="48.280701"
       gradientUnits="userSpaceOnUse"><stop
         stop-color="#8C96F2"
         id="stop18" /><stop
         offset="1"
         stop-color="#162DD5"
         id="stop19" /></linearGradient><linearGradient
       id="paint6_linear_46_40"
       x1="0.29911599"
       y1="0.150519"
       x2="61.136902"
       y2="48.280701"
       gradientUnits="userSpaceOnUse"><stop
         stop-color="#8C96F2"
         id="stop20" /><stop
         offset="1"
         stop-color="#162DD5"
         id="stop21" /></linearGradient><linearGradient
       id="paint7_linear_46_40"
       x1="0.29908699"
       y1="0.150492"
       x2="61.136902"
       y2="48.280701"
       gradientUnits="userSpaceOnUse"><stop
         stop-color="#8C96F2"
         id="stop22" /><stop
         offset="1"
         stop-color="#162DD5"
         id="stop23" /></linearGradient></defs><g
     inkscape:label="图层 1"
     inkscape:groupmode="layer"
     id="layer1"
     transform="translate(-0.45510764,-0.64932627)"><text
       xml:space="preserve"
       style="font-style:normal;font-variant:normal;font-weight:normal;font-stretch:normal;font-size:43.2318px;font-family:'.Geeza Pro PUA';-inkscape-font-specification:'.Geeza Pro PUA';fill:#a5b4fc;fill-opacity:1;stroke-width:0.451043;stroke-dasharray:none"
       x="4.6838183"
       y="50.261284"
       id="text3"
       transform="scale(0.96262223,1.0388291)"><tspan
         sodipodi:role="line"
         id="tspan3"
         style="font-style:normal;font-variant:normal;font-weight:normal;font-stretch:normal;font-size:43.2318px;font-family:'Bauhaus 93';-inkscape-font-specification:'Bauhaus 93, Normal';font-variant-ligatures:normal;font-variant-caps:normal;font-variant-numeric:normal;font-variant-east-asian:normal;fill:#a5b4fc;fill-opacity:1;stroke-width:0.451043;stroke-dasharray:none"
         x="4.6838183"
         y="50.261284">thX chat</tspan></text><g
       style="fill:none"
       id="g5"
       transform="matrix(0.407426,0,0,0.46781887,60.208854,3.7552795)"><path
         opacity="0.79"
         d="M 14.8976,17.9823 C 14.639,16.2432 14.2743,14.2884 14.0871,13.6383 13.46,11.46 12.4779,9.89251 10.696,8.22559 9.56206,7.16485 9.59881,7.1552 12.2116,7.82767 c 4.8658,1.25237 7.7492,3.28343 10.0159,7.05513 0.3679,0.6121 0.493,0.9367 0.3762,0.9756 -0.0964,0.0321 -1.022,0.625 -2.057,1.3175 -1.652,1.1054 -2.3534,1.6384 -4.6702,3.5488 l -0.5087,0.4195 z"
         fill="url(#paint0_linear_46_40)"
         id="path1"
         style="fill:url(#paint0_linear_46_40)" /><path
         opacity="0.79"
         d="M 22.5435,14.5251 C 21.1023,12.0888 19.0679,10.1894 16.5662,8.94486 14.7941,8.06325 13.9405,7.7791 11.3762,7.21714 6.54471,6.15832 5.08235,5.90062 1.49603,5.47603 L 0,5.29892 0.712412,5.0791 C 1.27112,4.90668 2.19317,4.85792 4.9868,4.85302 L 8.54878,4.84678 9.33242,4.25109 C 11.1261,2.88757 13.5847,2.06842 15.8834,2.06842 c 2.1638,0 3.7064,0.5757 4.9628,1.85208 0.8951,0.90929 1.5142,2.09758 2.45,4.70198 0.9308,2.59082 1.5472,3.89672 2.1954,4.65112 l 0.5072,0.5903 -0.3223,0.2112 c -0.1773,0.1162 -0.8343,0.4686 -1.46,0.7832 l -1.1376,0.572 z"
         fill="url(#paint1_linear_46_40)"
         id="path2"
         style="fill:url(#paint1_linear_46_40)" /><path
         opacity="0.79"
         d="m 29.3508,12.3638 c 0.2404,-0.2488 4.267,-2.56283 7.124,-4.09389 12.4873,-6.69188 22.5754,-9.3889 29.357,-7.848435 1.3087,0.297269 3.2163,0.957495 3.1673,1.096205 -0.0214,0.06053 -1.6098,1.33046 -3.5297,2.8221 L 61.9787,7.05185 60.1264,6.94669 C 56.6465,6.74908 50.0391,6.83542 48.0869,7.104 43.4533,7.74147 36.045,9.76748 31.203,11.7214 c -2.0637,0.8328 -2.0221,0.8184 -1.8522,0.6424 z"
         fill="url(#paint2_linear_46_40)"
         id="path3"
         style="fill:url(#paint2_linear_46_40)" /><path
         opacity="0.79"
         d="m 35.2138,53.8833 c -2.3466,-6.9076 -4.3625,-11.802 -5.5312,-13.4294 -0.3145,-0.4379 -0.738,-0.7944 -1.2578,-1.0588 -1.1465,-0.5832 -2.6261,-1.6656 -3.8847,-2.842 -1.3816,-1.2913 -3.3004,-3.5625 -3.1429,-3.72 0.2232,-0.2233 2.2473,-0.4493 3.1787,-0.355 4.7387,0.4798 8.642,3.9209 10.4001,9.1686 0.7406,2.2106 0.87,3.3739 0.9226,8.2949 0.0264,2.4684 0.1186,4.9959 0.2048,5.6165 0.0863,0.6206 0.141,1.1441 0.1217,1.1633 -0.0194,0.0191 -0.4745,-1.2579 -1.0113,-2.8381 z"
         fill="url(#paint3_linear_46_40)"
         id="path4"
         style="fill:url(#paint3_linear_46_40)" /><path
         opacity="0.79"
         d="m 35.9326,43.815 c -0.0631,-0.431 -0.3384,-1.4545 -0.6117,-2.2744 -1.4736,-4.4204 -4.4156,-7.6057 -8.2497,-8.9318 -1.0291,-0.356 -1.3338,-0.3949 -3.1346,-0.4001 -1.243,-0.0036 -2.1747,0.0605 -2.4724,0.17 -0.4349,0.16 -0.5012,0.1473 -0.7397,-0.1425 -0.6682,-0.8117 -0.6655,-0.8335 0.2703,-2.1998 1.231,-1.7972 1.3012,-1.8495 2.7244,-2.0278 2.7681,-0.3469 5.5464,-0.1713 9.0797,0.5737 l 1.4785,0.3118 0.5523,1.1557 c 1.272,2.6614 1.6539,6.4375 1.3058,12.9103 -0.083,1.5444 -0.0947,1.5935 -0.2029,0.8549 z"
         fill="url(#paint4_linear_46_40)"
         id="path5"
         style="fill:url(#paint4_linear_46_40)" /><path
         opacity="0.79"
         d="m 32.2716,28.1259 c -2.8659,-0.6111 -4.847,-0.7655 -7.2795,-0.5674 -1.1115,0.0905 -2.0468,0.1386 -2.0785,0.107 -0.0316,-0.0317 0.3981,-0.4507 0.955,-0.9312 2.9986,-2.5873 6.2019,-3.963 10.8419,-4.6565 1.7616,-0.2633 8.3938,-0.4552 8.1759,-0.2366 -0.1922,0.1928 -8.639,6.733 -8.6682,6.7116 -0.0127,-0.0092 -0.8886,-0.2014 -1.9466,-0.4269 z"
         fill="url(#paint5_linear_46_40)"
         id="path6"
         style="fill:url(#paint5_linear_46_40)" /><path
         opacity="0.79"
         d="M 19.0022,29.7445 C 18.5609,29.0591 17.959,28.0604 17.6648,27.5249 l -0.535,-0.9734 0.8388,-0.8547 c 5.3815,-5.4834 13.3055,-8.8874 23.3289,-10.0219 2.2942,-0.2596 8.6062,-0.5132 9.3945,-0.3775 l 0.5392,0.0929 -3.8874,3.0228 -3.8875,3.0228 -3.0029,0.0049 c -1.6516,0.0026 -3.7033,0.0732 -4.5594,0.1568 -4.4297,0.4323 -8.2115,1.7503 -11.0191,3.8402 -1.385,1.0309 -3.4639,3.2253 -4.2866,4.5246 -0.3526,0.557 -0.6732,1.0161 -0.7124,1.0204 -0.0391,0.0042 -0.4323,-0.5531 -0.8737,-1.2384 z"
         fill="url(#paint6_linear_46_40)"
         id="path7"
         style="fill:url(#paint6_linear_46_40)" /><path
         opacity="0.79"
         d="m 16.5943,25.4757 c -0.4955,-1.0991 -0.7115,-1.7584 -0.9235,-2.819 l -0.1995,-0.9973 0.5994,-0.5542 c 2.5292,-2.3385 6.1208,-4.7312 10.0798,-6.715 6.5133,-3.2638 15.9468,-6.19123 22.5637,-7.00193 1.9814,-0.24278 8.9947,-0.29241 11.536,-0.08165 l 1.2635,0.10478 -4.8012,3.7176 -4.8013,3.7176 -3.7287,0.0904 c -7.1608,0.1734 -12.1174,0.8939 -16.9795,2.4682 -5.1059,1.6533 -9.4041,4.141 -12.9923,7.5197 l -1.3091,1.2326 z"
         fill="url(#paint7_linear_46_40)"
         id="path8"
         style="fill:url(#paint7_linear_46_40)" /></g></g></svg>
